<svg width="1088" height="389" viewBox="0 0 1088 389" fill="none" xmlns="http://www.w3.org/2000/svg">
<g clip-path="url(#clip0_8725_7594)">
<path d="M59.9796 155.262H89.0912L149.284 311.545H119.954L105.289 270.176H42.9067L28.2414 311.545H0.00537109L59.9796 155.262ZM50.3487 249.382H98.0655L74.6449 182.184H73.9882L50.3487 249.382Z" fill="#828383"/>
<path d="M226.114 236.224C224.144 222.216 214.294 214.993 200.286 214.993C187.372 214.993 169.204 221.997 169.204 256.143C169.204 274.967 177.522 294.885 199.191 294.885C213.856 294.885 223.706 285.473 226.114 269.057H251.067C246.47 298.606 228.303 314.585 199.191 314.585C163.732 314.585 144.251 289.413 144.251 256.143C144.251 222.872 162.856 195.293 200.067 195.293C226.333 195.293 248.659 208.426 251.067 236.224H226.114Z" fill="#828383"/>
<path d="M336.867 236.224C334.897 222.216 325.047 214.993 311.039 214.993C298.125 214.993 279.957 221.997 279.957 256.143C279.957 274.967 288.275 294.885 309.944 294.885C324.61 294.885 334.459 285.473 336.867 269.057H361.82C357.223 298.606 339.056 314.585 309.944 314.585C274.485 314.585 255.004 289.413 255.004 256.143C255.004 222.872 273.61 195.293 310.82 195.293C337.086 195.293 359.412 208.426 361.82 236.224H336.867Z" fill="#828383"/>
<path d="M371.89 155.262H396.843V178.901H371.89V155.262ZM371.89 198.382H396.843V311.545H371.89V198.382Z" fill="#828383"/>
<path d="M489.431 236.224C487.461 222.216 477.611 214.993 463.602 214.993C450.688 214.993 432.521 221.997 432.521 256.143C432.521 274.967 440.838 294.885 462.508 294.885C477.173 294.885 487.023 285.473 489.431 269.057H514.383C509.787 298.606 491.619 314.585 462.508 314.585C427.049 314.585 407.568 289.413 407.568 256.143C407.568 222.872 426.173 195.293 463.383 195.293C489.649 195.293 511.976 208.426 514.383 236.224H489.431Z" fill="#828383"/>
<path d="M518.544 254.854C518.544 220.489 539.557 195.317 575.673 195.317C611.789 195.317 632.801 220.489 632.801 254.854C632.801 289.219 611.789 314.609 575.673 314.609C539.557 314.609 518.544 289.657 518.544 254.854ZM607.849 254.854C607.849 235.373 597.999 215.017 575.673 215.017C553.346 215.017 543.497 235.373 543.497 254.854C543.497 274.335 553.346 294.91 575.673 294.91C597.999 294.91 607.849 274.554 607.849 254.854Z" fill="#828383"/>
<path d="M642.65 198.382H666.289V214.141H666.946C674.607 202.978 683.581 195.317 701.749 195.317C715.538 195.317 728.452 201.227 733.487 214.141C742.023 202.541 752.311 195.317 768.946 195.317C792.804 195.317 806.813 206.043 806.813 233.403V311.545H781.86V245.442C781.86 227.275 780.766 215.017 761.285 215.017C744.431 215.017 737.208 225.961 737.208 245.223V311.545H712.255V238.875C712.255 223.116 707.44 215.017 692.337 215.017C679.422 215.017 667.603 225.742 667.603 244.347V311.545H642.65V198.382Z" fill="#828383"/>
<path d="M814.59 79.0173H805.202V42.0016L749.776 97.2577L805.202 150.495V115.498H814.59C829.571 115.498 841.756 127.683 841.756 142.664V388.179H878.236V142.664C878.236 107.57 849.684 79.0173 814.59 79.0173Z" fill="#017EB1"/>
<path d="M1072.51 224.162L1017.09 170.924V206.943H1009.16C972.993 206.943 943.565 236.371 943.565 272.535V388.179H980.046V272.535C980.046 256.484 993.106 243.424 1009.16 243.424H1017.09V279.442L1072.51 224.186V224.162Z" fill="#003E73"/>
<path d="M1088 0L1011.15 0.000610352L1035.2 25.4398L908.567 154.8C898.62 164.942 893.148 178.367 893.148 192.57V388.179H929.628V192.57C929.628 187.973 931.404 183.62 934.638 180.312L1060.3 51.9491L1088 80V0Z" fill="#065496"/>
<path d="M97.4943 335.151C108.766 335.151 114.577 341.592 114.577 350.904C114.577 360.145 108.766 366.587 97.4943 366.587H83.7718V385H76.2804V335.151H97.4943ZM97.3542 360.005C103.655 360.005 106.946 356.715 106.946 350.904C106.946 345.093 103.655 341.732 97.3542 341.732H83.7718V360.005H97.3542ZM137.537 348.313C138.167 348.313 138.797 348.313 139.567 348.383V355.034H137.817C130.885 355.034 126.545 358.465 126.545 365.396V385H119.543V348.873H126.265V355.315C128.225 351.394 131.796 348.313 137.537 348.313ZM170.027 333.681L161.205 343.762H155.184L161.275 333.681H170.027ZM175.067 367.217V369.247H147.832C148.463 376.598 152.383 379.959 158.194 379.959C162.885 379.959 165.896 377.579 167.156 373.938H174.227C172.407 380.939 166.736 385.84 158.054 385.84C147.832 385.84 140.761 378.559 140.761 366.937C140.761 355.595 147.622 348.033 157.914 348.033C168.836 348.033 175.067 356.365 175.067 367.217ZM157.914 353.914C152.663 353.914 148.813 357.065 147.902 363.716H167.856C167.226 358.115 163.795 353.914 157.914 353.914ZM194.164 385.91C184.502 385.91 178.831 382.129 178.341 373.518H185.342C185.902 378.559 188.353 380.379 194.234 380.379C199.905 380.379 202.215 378.559 202.215 375.338C202.215 372.468 200.465 371.067 194.514 370.017L190.803 369.317C183.032 367.917 179.321 364.416 179.321 358.535C179.321 352.164 184.362 348.033 193.254 348.033C203.546 348.033 208.307 352.514 208.517 360.145H201.725C201.445 354.964 198.365 353.494 193.254 353.494C188.703 353.494 186.253 355.315 186.253 358.325C186.253 361.406 188.703 362.596 192.974 363.436L196.754 364.066C205.576 365.746 209.287 368.827 209.287 374.848C209.287 381.919 203.616 385.91 194.164 385.91ZM230.757 354.614H223.475V376.318C223.475 378.419 224.525 379.399 227.606 379.399H230.757V385C229.216 385.14 227.746 385.21 226.486 385.21C219.975 385.21 216.474 382.97 216.474 376.949V354.614H210.663V348.873H216.474V338.511H223.475V348.873H230.757V354.614ZM266.904 379.609H268.864V385C267.814 385.14 266.553 385.21 265.433 385.21C260.952 385.21 258.922 383.6 258.432 380.099C255.982 383.88 251.921 385.84 246.67 385.84C238.898 385.84 233.787 382.059 233.787 375.128C233.787 369.317 237.288 364.906 247.37 363.926L252.691 363.366C256.192 362.946 258.082 361.756 258.082 358.815C258.082 355.455 256.332 353.634 250.661 353.634C244.99 353.634 242.609 355.245 242.259 360.145H235.328C235.748 352.864 239.809 348.033 250.661 348.033C261.022 348.033 264.943 352.374 264.943 358.675V377.789C264.943 378.909 265.503 379.609 266.904 379.609ZM247.72 380.379C252.831 380.379 258.082 377.509 258.082 370.717V366.937C257.032 367.777 255.561 368.197 253.601 368.407L248.56 368.967C242.749 369.667 240.999 371.698 240.999 374.918C240.999 378.209 243.169 380.379 247.72 380.379ZM312.698 348.033C320.889 348.033 325.16 353.354 325.16 360.776V385H318.089V361.686C318.089 356.505 315.638 354.194 311.158 354.194C306.887 354.194 302.686 357.345 302.686 365.186V385H295.685V361.686C295.685 356.505 293.164 354.194 288.684 354.194C284.553 354.194 280.212 357.345 280.212 365.186V385H273.211V348.873H279.932V354.264C282.102 350.554 285.463 348.033 290.364 348.033C296.035 348.033 299.746 350.764 301.496 354.824C303.806 350.834 307.517 348.033 312.698 348.033ZM348.931 385.84C338.359 385.84 331.007 378.489 331.007 366.937C331.007 355.385 338.359 348.033 348.931 348.033C359.433 348.033 366.784 355.385 366.784 366.937C366.784 378.489 359.433 385.84 348.931 385.84ZM348.931 379.819C355.302 379.819 359.503 375.198 359.503 366.937C359.503 358.675 355.302 354.054 348.931 354.054C342.49 354.054 338.289 358.675 338.289 366.937C338.289 375.198 342.49 379.819 348.931 379.819ZM385.504 385.91C375.842 385.91 370.171 382.129 369.681 373.518H376.683C377.243 378.559 379.693 380.379 385.574 380.379C391.245 380.379 393.556 378.559 393.556 375.338C393.556 372.468 391.805 371.067 385.854 370.017L382.144 369.317C374.372 367.917 370.661 364.416 370.661 358.535C370.661 352.164 375.702 348.033 384.594 348.033C394.886 348.033 399.647 352.514 399.857 360.145H393.066C392.786 354.964 389.705 353.494 384.594 353.494C380.043 353.494 377.593 355.315 377.593 358.325C377.593 361.406 380.043 362.596 384.314 363.436L388.095 364.066C396.916 365.746 400.627 368.827 400.627 374.848C400.627 381.919 394.956 385.91 385.504 385.91ZM445.967 335.151H452.968V385H446.247V379.679C443.656 383.53 439.596 385.84 434.275 385.84C424.193 385.84 417.752 378.489 417.752 366.937C417.752 355.385 424.193 348.033 434.275 348.033C439.386 348.033 443.376 350.134 445.967 353.774V335.151ZM435.605 379.819C442.046 379.819 446.177 375.198 446.177 366.937C446.177 358.675 442.046 354.054 435.605 354.054C429.164 354.054 425.033 358.955 425.033 367.217C425.033 375.478 429.164 379.819 435.605 379.819ZM493.211 367.217V369.247H465.976C466.606 376.598 470.527 379.959 476.338 379.959C481.029 379.959 484.04 377.579 485.3 373.938H492.371C490.551 380.939 484.88 385.84 476.198 385.84C465.976 385.84 458.905 378.559 458.905 366.937C458.905 355.595 465.766 348.033 476.058 348.033C486.98 348.033 493.211 356.365 493.211 367.217ZM476.058 353.914C470.807 353.914 466.957 357.065 466.046 363.716H486C485.37 358.115 481.939 353.914 476.058 353.914ZM534.858 386.12C521.135 386.12 511.333 376.178 511.333 360.075C511.333 343.972 521.065 334.031 534.858 334.031C545.219 334.031 554.321 339.492 556.702 351.674H549.14C547.11 343.762 541.299 340.682 534.858 340.682C525.336 340.682 519.105 347.893 519.105 360.075C519.105 372.258 525.336 379.469 534.858 379.469C541.649 379.469 548.3 375.408 549.49 366.587H556.982C555.581 379.679 545.639 386.12 534.858 386.12ZM578.82 385.84C568.248 385.84 560.896 378.489 560.896 366.937C560.896 355.385 568.248 348.033 578.82 348.033C589.322 348.033 596.673 355.385 596.673 366.937C596.673 378.489 589.322 385.84 578.82 385.84ZM578.82 379.819C585.191 379.819 589.392 375.198 589.392 366.937C589.392 358.675 585.191 354.054 578.82 354.054C572.378 354.054 568.178 358.675 568.178 366.937C568.178 375.198 572.378 379.819 578.82 379.819ZM620.631 348.033C628.472 348.033 633.303 352.514 633.303 360.776V385H626.302V361.756C626.302 356.575 623.571 354.194 618.671 354.194C614.4 354.194 609.569 357.345 609.569 364.626V385H602.568V348.873H609.289V354.264C611.669 350.694 615.52 348.033 620.631 348.033ZM654.29 385.91C644.628 385.91 638.957 382.129 638.467 373.518H645.469C646.029 378.559 648.479 380.379 654.36 380.379C660.031 380.379 662.342 378.559 662.342 375.338C662.342 372.468 660.591 371.067 654.64 370.017L650.93 369.317C643.158 367.917 639.447 364.416 639.447 358.535C639.447 352.164 644.488 348.033 653.38 348.033C663.672 348.033 668.433 352.514 668.643 360.145H661.852C661.572 354.964 658.491 353.494 653.38 353.494C648.829 353.494 646.379 355.315 646.379 358.325C646.379 361.406 648.829 362.596 653.1 363.436L656.881 364.066C665.702 365.746 669.413 368.827 669.413 374.848C669.413 381.919 663.742 385.91 654.29 385.91ZM698.079 348.873H705.081V385H698.359V379.609C696.049 383.18 692.128 385.84 687.017 385.84C679.246 385.84 674.345 381.359 674.345 373.098V348.873H681.346V372.118C681.346 377.299 684.077 379.679 688.978 379.679C693.319 379.679 698.079 376.528 698.079 369.247V348.873ZM752.182 348.033C760.374 348.033 764.645 353.354 764.645 360.776V385H757.573V361.686C757.573 356.505 755.123 354.194 750.642 354.194C746.371 354.194 742.171 357.345 742.171 365.186V385H735.169V361.686C735.169 356.505 732.649 354.194 728.168 354.194C724.037 354.194 719.696 357.345 719.696 365.186V385H712.695V348.873H719.416V354.264C721.587 350.554 724.947 348.033 729.848 348.033C735.519 348.033 739.23 350.764 740.98 354.824C743.291 350.834 747.001 348.033 752.182 348.033ZM788.415 385.84C777.843 385.84 770.492 378.489 770.492 366.937C770.492 355.385 777.843 348.033 788.415 348.033C798.917 348.033 806.268 355.385 806.268 366.937C806.268 378.489 798.917 385.84 788.415 385.84ZM788.415 379.819C794.786 379.819 798.987 375.198 798.987 366.937C798.987 358.675 794.786 354.054 788.415 354.054C781.974 354.054 777.773 358.675 777.773 366.937C777.773 375.198 781.974 379.819 788.415 379.819Z" fill="#0082A9"/>
</g>
<defs>
<clipPath id="clip0_8725_7594">
<rect width="1088" height="388.179" fill="white"/>
</clipPath>
</defs>
</svg>
