<svg width="112" height="35" viewBox="0 0 112 35" fill="none" xmlns="http://www.w3.org/2000/svg">
<path d="M8.24652 0.00406647H12.2494L20.526 21.4932H16.493L14.4766 15.8049H5.89897L3.88249 21.4932H0L8.24652 0.00406647ZM6.92226 12.9457H13.4834L10.263 3.70597H10.1727L6.92226 12.9457Z" fill="white"/>
<path d="M31.0897 11.1365C30.8188 9.21033 29.4645 8.21713 27.5383 8.21713C25.7626 8.21713 23.2645 9.18023 23.2645 13.8753C23.2645 16.4637 24.4082 19.2025 27.3878 19.2025C29.4043 19.2025 30.7586 17.9083 31.0897 15.651H34.5207C33.8887 19.7141 31.3907 21.9112 27.3878 21.9112C22.5121 21.9112 19.8335 18.45 19.8335 13.8753C19.8335 9.30062 22.3917 5.50842 27.5082 5.50842C31.1198 5.50842 34.1897 7.31423 34.5207 11.1365H31.0897Z" fill="white"/>
<path d="M46.3187 11.1365C46.0478 9.21033 44.6935 8.21713 42.7673 8.21713C40.9916 8.21713 38.4935 9.18023 38.4935 13.8753C38.4935 16.4637 39.6372 19.2025 42.6168 19.2025C44.6333 19.2025 45.9876 17.9083 46.3187 15.651H49.7497C49.1177 19.7141 46.6197 21.9112 42.6168 21.9112C37.7411 21.9112 35.0625 18.45 35.0625 13.8753C35.0625 9.30062 37.6207 5.50842 42.7372 5.50842C46.3488 5.50842 49.4187 7.31423 49.7497 11.1365H46.3187Z" fill="white"/>
<path d="M51.1348 0.00406647H54.5658V3.25452H51.1348V0.00406647ZM51.1348 5.93314H54.5658V21.4932H51.1348V5.93314Z" fill="white"/>
<path d="M67.2967 11.1365C67.0259 9.21033 65.6715 8.21713 63.7453 8.21713C61.9696 8.21713 59.4716 9.18023 59.4716 13.8753C59.4716 16.4637 60.6152 19.2025 63.5948 19.2025C65.6113 19.2025 66.9657 17.9083 67.2967 15.651H70.7278C70.0957 19.7141 67.5977 21.9112 63.5948 21.9112C58.7191 21.9112 56.0405 18.45 56.0405 13.8753C56.0405 9.30062 58.5988 5.50842 63.7152 5.50842C67.3268 5.50842 70.3967 7.31423 70.7278 11.1365H67.2967Z" fill="white"/>
<path d="M71.2998 13.6981C71.2998 8.97291 74.1891 5.51178 79.1551 5.51178C84.121 5.51178 87.0103 8.97291 87.0103 13.6981C87.0103 18.4233 84.121 21.9145 79.1551 21.9145C74.1891 21.9145 71.2998 18.4835 71.2998 13.6981ZM83.5793 13.6981C83.5793 11.0195 82.2249 8.22049 79.1551 8.22049C76.0852 8.22049 74.7308 11.0195 74.7308 13.6981C74.7308 16.3767 76.0852 19.2058 79.1551 19.2058C82.2249 19.2058 83.5793 16.4068 83.5793 13.6981Z" fill="white"/>
<path d="M88.3643 5.93313H91.6147V8.1001H91.705C92.7584 6.56517 93.9924 5.51178 96.4904 5.51178C98.3865 5.51178 100.162 6.32439 100.854 8.1001C102.028 6.50497 103.443 5.51178 105.73 5.51178C109.011 5.51178 110.937 6.98652 110.937 10.7486V21.4932H107.506V12.4039C107.506 9.90591 107.355 8.22049 104.677 8.22049C102.359 8.22049 101.366 9.72533 101.366 12.3738V21.4932H97.935V11.501C97.935 9.33407 97.2729 8.22049 95.1962 8.22049C93.4205 8.22049 91.7953 9.69523 91.7953 12.2535V21.4932H88.3643V5.93313Z" fill="white"/>
<path d="M14.0663 25.0139C15.6163 25.0139 16.4153 25.8996 16.4153 27.18C16.4153 28.4507 15.6163 29.3364 14.0663 29.3364H12.1795V31.8682H11.1494V25.0139H14.0663ZM14.0471 28.4315C14.9135 28.4315 15.366 27.979 15.366 27.18C15.366 26.3809 14.9135 25.9189 14.0471 25.9189H12.1795V28.4315H14.0471ZM19.5722 26.8238C19.6589 26.8238 19.7455 26.8238 19.8514 26.8334V27.748H19.6107C18.6577 27.748 18.0608 28.2197 18.0608 29.1727V31.8682H17.0981V26.9008H18.0223V27.7865C18.2919 27.2474 18.7828 26.8238 19.5722 26.8238ZM24.0396 24.8118L22.8266 26.198H21.9987L22.8363 24.8118H24.0396ZM24.7327 29.423V29.7022H20.9879C21.0745 30.713 21.6136 31.1751 22.4127 31.1751C23.0577 31.1751 23.4716 30.8478 23.6449 30.3472H24.6172C24.3669 31.3099 23.5871 31.9838 22.3934 31.9838C20.9879 31.9838 20.0156 30.9826 20.0156 29.3845C20.0156 27.825 20.959 26.7853 22.3742 26.7853C23.876 26.7853 24.7327 27.9309 24.7327 29.423ZM22.3742 27.5939C21.6522 27.5939 21.1227 28.0271 20.9975 28.9417H23.7412C23.6545 28.1715 23.1828 27.5939 22.3742 27.5939ZM27.3585 31.9934C26.03 31.9934 25.2503 31.4735 25.1829 30.2894H26.1456C26.2226 30.9826 26.5595 31.2329 27.3682 31.2329C28.1479 31.2329 28.4656 30.9826 28.4656 30.5397C28.4656 30.145 28.225 29.9525 27.4067 29.8081L26.8965 29.7118C25.8279 29.5193 25.3176 29.038 25.3176 28.2293C25.3176 27.3533 26.0108 26.7853 27.2334 26.7853C28.6485 26.7853 29.3032 27.4014 29.332 28.4507H28.3982C28.3597 27.7383 27.9362 27.5362 27.2334 27.5362C26.6076 27.5362 26.2707 27.7865 26.2707 28.2004C26.2707 28.624 26.6076 28.7877 27.1949 28.9032L27.7147 28.9898C28.9277 29.2209 29.4379 29.6444 29.4379 30.4724C29.4379 31.4447 28.6582 31.9934 27.3585 31.9934ZM32.3901 27.6902H31.3889V30.6745C31.3889 30.9633 31.5333 31.0981 31.9569 31.0981H32.3901V31.8682C32.1783 31.8875 31.9761 31.8971 31.8028 31.8971C30.9075 31.8971 30.4262 31.5891 30.4262 30.7612V27.6902H29.6272V26.9008H30.4262V25.476H31.3889V26.9008H32.3901V27.6902ZM37.3603 31.127H37.6299V31.8682C37.4855 31.8875 37.3122 31.8971 37.1581 31.8971C36.542 31.8971 36.2628 31.6757 36.1955 31.1944C35.8585 31.7142 35.3002 31.9838 34.5781 31.9838C33.5096 31.9838 32.8068 31.4639 32.8068 30.5109C32.8068 29.7118 33.2881 29.1053 34.6744 28.9706L35.4061 28.8936C35.8874 28.8358 36.1473 28.6721 36.1473 28.2678C36.1473 27.8057 35.9067 27.5554 35.1269 27.5554C34.3471 27.5554 34.0198 27.7768 33.9717 28.4507H33.0186C33.0764 27.4495 33.6347 26.7853 35.1269 26.7853C36.5516 26.7853 37.0908 27.3821 37.0908 28.2486V30.8767C37.0908 31.0307 37.1678 31.127 37.3603 31.127ZM34.7225 31.2329C35.4253 31.2329 36.1473 30.8382 36.1473 29.9044V29.3845C36.0029 29.5 35.8008 29.5578 35.5312 29.5867L34.8381 29.6637C34.039 29.76 33.7984 30.0391 33.7984 30.482C33.7984 30.9344 34.0968 31.2329 34.7225 31.2329ZM43.6571 26.7853C44.7834 26.7853 45.3707 27.5169 45.3707 28.5374V31.8682H44.3984V28.6625C44.3984 27.9501 44.0614 27.6324 43.4453 27.6324C42.8581 27.6324 42.2804 28.0656 42.2804 29.1439V31.8682H41.3178V28.6625C41.3178 27.9501 40.9712 27.6324 40.3551 27.6324C39.7871 27.6324 39.1902 28.0656 39.1902 29.1439V31.8682H38.2275V26.9008H39.1517V27.6421C39.4502 27.1318 39.9122 26.7853 40.5861 26.7853C41.3659 26.7853 41.8761 27.1607 42.1168 27.7191C42.4345 27.1703 42.9447 26.7853 43.6571 26.7853ZM48.6391 31.9838C47.1855 31.9838 46.1747 30.973 46.1747 29.3845C46.1747 27.7961 47.1855 26.7853 48.6391 26.7853C50.0832 26.7853 51.094 27.7961 51.094 29.3845C51.094 30.973 50.0832 31.9838 48.6391 31.9838ZM48.6391 31.1559C49.5152 31.1559 50.0928 30.5205 50.0928 29.3845C50.0928 28.2486 49.5152 27.6132 48.6391 27.6132C47.7535 27.6132 47.1759 28.2486 47.1759 29.3845C47.1759 30.5205 47.7535 31.1559 48.6391 31.1559ZM53.668 31.9934C52.3395 31.9934 51.5598 31.4735 51.4924 30.2894H52.455C52.5321 30.9826 52.869 31.2329 53.6777 31.2329C54.4574 31.2329 54.7751 30.9826 54.7751 30.5397C54.7751 30.145 54.5344 29.9525 53.7162 29.8081L53.2059 29.7118C52.1374 29.5193 51.6271 29.038 51.6271 28.2293C51.6271 27.3533 52.3203 26.7853 53.5429 26.7853C54.958 26.7853 55.6127 27.4014 55.6415 28.4507H54.7077C54.6692 27.7383 54.2456 27.5362 53.5429 27.5362C52.9171 27.5362 52.5802 27.7865 52.5802 28.2004C52.5802 28.624 52.9171 28.7877 53.5044 28.9032L54.0242 28.9898C55.2372 29.2209 55.7474 29.6444 55.7474 30.4724C55.7474 31.4447 54.9677 31.9934 53.668 31.9934ZM61.9817 25.0139H62.9444V31.8682H62.0202V31.1366C61.664 31.6661 61.1057 31.9838 60.374 31.9838C58.9878 31.9838 58.1021 30.973 58.1021 29.3845C58.1021 27.7961 58.9878 26.7853 60.374 26.7853C61.0768 26.7853 61.6255 27.0741 61.9817 27.5747V25.0139ZM60.5569 31.1559C61.4426 31.1559 62.0106 30.5205 62.0106 29.3845C62.0106 28.2486 61.4426 27.6132 60.5569 27.6132C59.6713 27.6132 59.1033 28.2871 59.1033 29.423C59.1033 30.559 59.6713 31.1559 60.5569 31.1559ZM68.4779 29.423V29.7022H64.733C64.8197 30.713 65.3588 31.1751 66.1578 31.1751C66.8028 31.1751 67.2168 30.8478 67.39 30.3472H68.3624C68.1121 31.3099 67.3323 31.9838 66.1386 31.9838C64.733 31.9838 63.7607 30.9826 63.7607 29.3845C63.7607 27.825 64.7042 26.7853 66.1193 26.7853C67.6211 26.7853 68.4779 27.9309 68.4779 29.423ZM66.1193 27.5939C65.3973 27.5939 64.8678 28.0271 64.7427 28.9417H67.4863C67.3997 28.1715 66.928 27.5939 66.1193 27.5939ZM74.2043 32.0223C72.3174 32.0223 70.9696 30.6553 70.9696 28.4411C70.9696 26.2269 72.3078 24.8599 74.2043 24.8599C75.629 24.8599 76.8805 25.6108 77.2078 27.2859H76.1681C75.889 26.198 75.0899 25.7745 74.2043 25.7745C72.895 25.7745 72.0382 26.766 72.0382 28.4411C72.0382 30.1162 72.895 31.1077 74.2043 31.1077C75.1381 31.1077 76.0526 30.5494 76.2163 29.3364H77.2464C77.0538 31.1366 75.6868 32.0223 74.2043 32.0223ZM80.2491 31.9838C78.7954 31.9838 77.7846 30.973 77.7846 29.3845C77.7846 27.7961 78.7954 26.7853 80.2491 26.7853C81.6931 26.7853 82.7039 27.7961 82.7039 29.3845C82.7039 30.973 81.6931 31.9838 80.2491 31.9838ZM80.2491 31.1559C81.1251 31.1559 81.7028 30.5205 81.7028 29.3845C81.7028 28.2486 81.1251 27.6132 80.2491 27.6132C79.3634 27.6132 78.7858 28.2486 78.7858 29.3845C78.7858 30.5205 79.3634 31.1559 80.2491 31.1559ZM85.9982 26.7853C87.0764 26.7853 87.7407 27.4014 87.7407 28.5374V31.8682H86.778V28.6721C86.778 27.9597 86.4025 27.6324 85.7287 27.6324C85.1414 27.6324 84.4772 28.0656 84.4772 29.0668V31.8682H83.5145V26.9008H84.4387V27.6421C84.766 27.1511 85.2954 26.7853 85.9982 26.7853ZM90.6264 31.9934C89.2979 31.9934 88.5181 31.4735 88.4507 30.2894H89.4134C89.4904 30.9826 89.8274 31.2329 90.636 31.2329C91.4158 31.2329 91.7335 30.9826 91.7335 30.5397C91.7335 30.145 91.4928 29.9525 90.6745 29.8081L90.1643 29.7118C89.0957 29.5193 88.5855 29.038 88.5855 28.2293C88.5855 27.3533 89.2786 26.7853 90.5012 26.7853C91.9164 26.7853 92.571 27.4014 92.5999 28.4507H91.6661C91.6276 27.7383 91.204 27.5362 90.5012 27.5362C89.8755 27.5362 89.5386 27.7865 89.5386 28.2004C89.5386 28.624 89.8755 28.7877 90.4627 28.9032L90.9826 28.9898C92.1956 29.2209 92.7058 29.6444 92.7058 30.4724C92.7058 31.4447 91.926 31.9934 90.6264 31.9934ZM96.6475 26.9008H97.6101V31.8682H96.686V31.127C96.3683 31.618 95.8292 31.9838 95.1264 31.9838C94.0578 31.9838 93.384 31.3677 93.384 30.2317V26.9008H94.3466V30.0969C94.3466 30.8093 94.7221 31.1366 95.396 31.1366C95.9928 31.1366 96.6475 30.7034 96.6475 29.7022V26.9008ZM104.087 26.7853C105.213 26.7853 105.8 27.5169 105.8 28.5374V31.8682H104.828V28.6625C104.828 27.9501 104.491 27.6324 103.875 27.6324C103.288 27.6324 102.71 28.0656 102.71 29.1439V31.8682H101.747V28.6625C101.747 27.9501 101.401 27.6324 100.785 27.6324C100.217 27.6324 99.6198 28.0656 99.6198 29.1439V31.8682H98.6571V26.9008H99.5813V27.6421C99.8797 27.1318 100.342 26.7853 101.016 26.7853C101.795 26.7853 102.306 27.1607 102.546 27.7191C102.864 27.1703 103.374 26.7853 104.087 26.7853ZM109.069 31.9838C107.615 31.9838 106.604 30.973 106.604 29.3845C106.604 27.7961 107.615 26.7853 109.069 26.7853C110.513 26.7853 111.524 27.7961 111.524 29.3845C111.524 30.973 110.513 31.9838 109.069 31.9838ZM109.069 31.1559C109.945 31.1559 110.522 30.5205 110.522 29.3845C110.522 28.2486 109.945 27.6132 109.069 27.6132C108.183 27.6132 107.605 28.2486 107.605 29.3845C107.605 30.5205 108.183 31.1559 109.069 31.1559Z" fill="white"/>
</svg>
