<svg width="66" height="75" viewBox="0 0 66 75" fill="none" xmlns="http://www.w3.org/2000/svg">
<path d="M12.4988 15.2378H10.6885V8.09961L0 18.7552L10.6885 29.0216V22.2727H12.4988C15.3878 22.2727 17.7375 24.6224 17.7375 27.5114V74.8568H24.7725V27.5114C24.7725 20.7438 19.2664 15.2378 12.4988 15.2378Z" fill="#9CD1FF"/>
<path d="M62.2364 43.2276L51.5479 32.9612V39.9071H50.019C43.045 39.9071 37.3701 45.582 37.3701 52.556V74.8568H44.4051V52.556C44.4051 49.4606 46.9236 46.9421 50.019 46.9421H51.5479V53.8879L62.2364 43.2323V43.2276Z" fill="#9CD1FF"/>
<path d="M65.2236 0.11725L50.4033 0L55.0416 4.90572L30.6209 29.8517C28.7027 31.8075 27.6475 34.3963 27.6475 37.1353V74.8568H34.6824V37.1353C34.6824 36.2489 35.0248 35.4094 35.6486 34.7715L59.8817 10.0178L64.7827 15.2002L65.2283 0.11256L65.2236 0.11725Z" fill="#9CD1FF"/>
</svg>
