<svg width="99" height="114" viewBox="0 0 99 114" fill="none" xmlns="http://www.w3.org/2000/svg">
<path d="M18.8782 23.0151H16.1438V12.2336L0 28.3279L16.1438 43.8342V33.6407H18.8782C23.2417 33.6407 26.7907 37.1896 26.7907 41.5532V113.064H37.4163V41.5532C37.4163 31.3314 29.1 23.0151 18.8782 23.0151Z" fill="#017EB1"/>
<path d="M94.0033 65.2908L77.8595 49.7845V60.2756H75.5502C65.0166 60.2756 56.4453 68.8469 56.4453 79.3804V113.064H67.0709V79.3804C67.0709 74.7051 70.8749 70.9012 75.5502 70.9012H77.8595V81.3922L94.0033 65.2979V65.2908Z" fill="#003E73"/>
<path d="M98.5147 0.177093L76.1301 0L83.1359 7.40959L46.2509 45.088C43.3536 48.0419 41.7598 51.9521 41.7598 56.089V113.064H52.3854V56.089C52.3854 54.7502 52.9025 53.4822 53.8446 52.5188L90.4463 15.1309L97.8488 22.9584L98.5218 0.17001L98.5147 0.177093Z" fill="#065496"/>
</svg>
