<svg width="23" height="23" viewBox="0 0 23 23" fill="none" xmlns="http://www.w3.org/2000/svg">
<path fill-rule="evenodd" clip-rule="evenodd" d="M15.8285 0C19.4678 0 22.4403 2.90967 22.5417 6.52477L22.5444 6.71568V15.828C22.5444 19.4672 19.6346 22.4403 16.0194 22.5417L15.8285 22.5444H6.71589C3.0766 22.5444 0.104093 19.6341 0.00267485 16.0189L0 15.828V6.71568C0 3.0765 2.90976 0.10409 6.52498 0.00267477L6.71589 0H15.8285ZM15.8285 2.26753H6.71588C4.3141 2.26753 2.35638 4.17182 2.27056 6.55261L2.26762 6.71566V15.828C2.26762 18.2297 4.17197 20.1874 6.55283 20.2732L6.71588 20.2761H15.8285C18.231 20.2761 20.188 18.3718 20.2738 15.991L20.2768 15.828V6.71566C20.2768 4.31395 18.3731 2.35629 15.9916 2.27047L15.8285 2.26753ZM10.9199 4.93159C14.2221 4.93159 16.9083 7.6179 16.9083 10.9196C16.9083 14.222 14.2221 16.9083 10.9199 16.9083C7.61774 16.9083 4.93159 14.222 4.93159 10.9196C4.93159 7.6179 7.61774 4.93159 10.9199 4.93159ZM10.9199 7.26121C8.89884 7.26121 7.26107 8.89909 7.26107 10.9203C7.26107 12.9408 8.89884 14.5794 10.9199 14.5794C12.941 14.5794 14.5788 12.9408 14.5788 10.9203C14.5788 8.89909 12.941 7.26121 10.9199 7.26121ZM16.9079 4.22708C17.6862 4.22708 18.3173 4.85818 18.3173 5.63575C18.3173 6.41402 17.6862 7.04513 16.9079 7.04513C16.1297 7.04513 15.4993 6.41402 15.4993 5.63575C15.4993 4.85818 16.1297 4.22708 16.9079 4.22708Z" fill="#AFDCEF"/>
</svg>
