<svg width="23" height="23" viewBox="0 0 23 23" fill="none" xmlns="http://www.w3.org/2000/svg">
<path fill-rule="evenodd" clip-rule="evenodd" d="M11.2722 0C5.04674 0 0 5.04674 0 11.2722C0 17.4977 5.04674 22.5444 11.2722 22.5444C17.4977 22.5444 22.5444 17.4977 22.5444 11.2722C22.5444 5.04674 17.4977 0 11.2722 0ZM6.68865 8.28852C7.57937 8.28852 8.13411 7.69882 8.13411 6.96185C8.11753 6.20929 7.57937 5.6361 6.70548 5.6361C5.8316 5.6361 5.26028 6.20929 5.26028 6.96185C5.26028 7.69882 5.81471 8.28852 6.67232 8.28852H6.68865ZM7.96586 17.0114V9.33613H5.41133V17.0114H7.96586ZM17.1785 12.6106L17.1784 17.0114H14.6239V12.9051C14.6239 11.8737 14.2543 11.1699 13.3295 11.1699C12.6238 11.1699 12.2034 11.6444 12.0188 12.1027C11.9513 12.2669 11.9347 12.4957 11.9347 12.7251V17.0116H9.37985C9.37985 17.0116 9.41352 10.0565 9.37985 9.33633H11.9347V10.4235C12.2737 9.90086 12.881 9.1559 14.2372 9.1559C15.9182 9.1559 17.1785 10.2531 17.1785 12.6106Z" fill="#AFDCEF"/>
</svg>
